<?xml version="1.0" standalone="no"?>
<!DOCTYPE svg PUBLIC "-//W3C//DTD SVG 20010904//EN"
 "http://www.w3.org/TR/2001/REC-SVG-20010904/DTD/svg10.dtd">
<svg version="1.0" xmlns="http://www.w3.org/2000/svg"
 width="700.000000pt" height="700.000000pt" viewBox="0 0 700.000000 700.000000"
 preserveAspectRatio="xMidYMid meet">
<metadata>
Created by potrace 1.14, written by Peter Selinger 2001-2017
</metadata>
<g transform="translate(0.000000,700.000000) scale(0.100000,-0.100000)"
fill="#000000" stroke="none">
<path d="M3248 6996 c-1 -2 -42 -6 -89 -10 -47 -4 -95 -8 -105 -10 -10 -2 -41
-7 -69 -10 -83 -12 -106 -16 -190 -32 -44 -8 -93 -19 -110 -24 -16 -5 -41 -11
-55 -14 -63 -12 -251 -70 -377 -117 -146 -54 -353 -150 -487 -226 -143 -81
-414 -266 -491 -336 -11 -10 -48 -42 -82 -70 -87 -73 -295 -285 -384 -392 -40
-49 -77 -92 -80 -95 -12 -10 -182 -256 -196 -285 -9 -16 -19 -32 -22 -35 -25
-20 -182 -326 -241 -470 -23 -58 -46 -114 -51 -125 -13 -30 -65 -191 -88 -270
-28 -96 -57 -223 -76 -330 -3 -16 -8 -41 -10 -55 -8 -40 -25 -179 -33 -265
-14 -158 -5 -686 13 -715 2 -3 6 -32 9 -64 4 -32 8 -62 10 -65 2 -3 6 -29 10
-58 3 -28 8 -57 11 -65 2 -7 6 -24 9 -38 2 -14 12 -56 21 -95 9 -38 18 -77 20
-85 41 -173 195 -573 277 -715 6 -11 25 -45 41 -74 107 -194 277 -439 415
-595 76 -87 321 -325 402 -393 544 -452 1208 -726 1912 -790 162 -15 634 -8
733 11 11 2 43 7 70 10 359 50 721 164 1055 331 137 68 336 185 415 244 28 20
62 44 76 53 118 75 413 343 550 500 35 40 66 75 69 78 3 3 30 37 60 75 30 39
58 75 63 80 125 157 304 467 407 703 86 199 181 503 214 687 20 108 36 208 42
255 3 30 8 73 11 95 9 74 11 570 2 640 -4 39 -11 93 -14 120 -8 74 -24 174
-35 225 -5 25 -12 56 -14 70 -20 108 -80 321 -128 450 -39 107 -70 183 -119
288 -22 46 -39 87 -39 90 0 4 -9 18 -20 32 -11 14 -20 30 -20 37 0 16 -160
279 -232 381 -54 76 -206 268 -248 313 -150 159 -246 251 -370 355 -104 87
-305 234 -319 234 -5 0 -11 4 -13 8 -10 27 -345 206 -533 287 -289 123 -661
222 -938 250 -37 3 -78 9 -90 12 -24 5 -543 14 -549 9z m-439 -920 c80 -57
174 -122 209 -146 117 -81 107 -51 107 -322 -1 -131 -3 -239 -5 -242 -3 -2
-68 -48 -145 -101 -77 -54 -167 -117 -200 -140 -33 -23 -279 -195 -548 -383
l-487 -341 -231 78 c-127 44 -233 81 -236 85 -3 3 -30 90 -60 193 -30 103 -59
201 -64 218 -15 50 -12 59 62 161 186 256 401 472 649 649 30 22 57 43 58 47
2 5 7 8 12 8 4 0 48 25 96 56 161 102 555 281 623 283 7 1 79 -46 160 -103z
m1579 75 c324 -117 619 -287 881 -508 159 -134 372 -371 490 -546 l48 -72 -66
-227 c-37 -125 -71 -232 -76 -237 -6 -5 -35 -16 -65 -26 -30 -9 -62 -19 -70
-22 -8 -3 -85 -30 -170 -59 l-155 -53 -35 23 c-60 41 -761 530 -885 618 -38
27 -160 112 -269 189 l-199 138 1 241 c0 133 2 244 5 246 25 25 456 323 468
323 9 1 53 -12 97 -28z m-791 -1474 c191 -134 253 -178 338 -236 44 -31 85
-59 90 -63 10 -8 108 -77 215 -151 30 -21 96 -67 145 -102 50 -35 140 -98 200
-140 161 -111 146 -94 130 -146 -20 -64 -341 -1009 -354 -1041 -6 -16 -8 -28
-5 -28 4 0 2 -6 -3 -12 -5 -7 -26 -65 -47 -128 -20 -63 -40 -121 -45 -128 -7
-11 -148 -14 -792 -13 -430 1 -784 3 -786 4 -5 6 -463 1371 -463 1382 0 7 46
44 103 84 111 79 492 347 597 420 36 24 126 87 200 140 74 52 164 115 200 140
36 25 83 58 104 73 21 15 43 28 47 28 5 0 61 -37 126 -83z m-2306 -857 c128
-44 234 -81 235 -83 1 -1 75 -218 164 -482 368 -1094 345 -1024 332 -1046 -7
-11 -22 -37 -33 -57 -11 -20 -30 -53 -41 -72 -11 -19 -32 -55 -46 -80 -14 -25
-46 -81 -71 -125 -25 -44 -50 -88 -56 -99 -11 -21 -9 -21 -120 -30 -44 -4
-100 -9 -125 -11 -25 -3 -71 -7 -102 -9 l-58 -5 -47 55 c-151 175 -339 490
-431 724 -46 116 -109 321 -127 410 -1 3 -4 19 -8 35 -4 17 -9 45 -12 64 -3
19 -8 37 -10 40 -2 4 -6 33 -10 65 -3 33 -8 63 -10 66 -8 12 -19 241 -19 353
1 78 5 112 15 122 24 23 331 245 339 245 5 0 113 -36 241 -80z m4632 58 c18
-12 64 -45 102 -73 39 -28 102 -75 141 -104 40 -29 74 -60 76 -69 7 -24 2
-285 -6 -357 -14 -124 -17 -143 -31 -221 -22 -120 -25 -133 -46 -219 -24 -93
-94 -303 -115 -343 -7 -15 -14 -31 -14 -35 0 -11 -123 -259 -157 -317 -71
-121 -203 -308 -265 -375 -15 -16 -28 -33 -28 -37 0 -4 -21 -5 -47 -3 -27 2
-84 7 -128 11 -44 3 -91 8 -105 9 -14 2 -46 4 -72 4 -50 1 -43 -6 -116 121
-11 19 -61 107 -112 195 l-92 160 15 55 c15 56 484 1450 489 1456 3 2 466 162
476 163 2 1 18 -9 35 -21z m-1559 -2099 c7 -7 59 -94 115 -191 85 -148 100
-180 92 -200 -5 -13 -40 -88 -78 -168 -39 -80 -89 -186 -113 -236 l-42 -92
-132 -35 c-72 -20 -144 -38 -161 -41 -16 -4 -41 -9 -55 -12 -172 -35 -303 -47
-520 -48 -156 0 -265 6 -340 19 -14 2 -43 7 -65 10 -59 8 -98 15 -115 20 -8 2
-28 7 -45 10 -63 11 -184 42 -260 67 -43 14 -42 12 -116 173 -28 61 -65 139
-81 175 -17 36 -43 92 -58 125 l-27 60 29 45 c15 25 31 52 35 60 17 36 156
266 163 270 4 3 402 5 884 4 752 0 878 -2 890 -15z"/>
</g>
</svg>
