<svg width="33" height="29" viewBox="0 0 33 29" fill="none" xmlns="http://www.w3.org/2000/svg">
<path d="M21.3265 0.609224C21.7401 0.371316 22.2681 0.512811 22.5073 0.925608L27.325 9.24136H32.0565C32.5345 9.24136 32.9221 9.62893 32.9221 10.107V11.6344C32.9221 12.1125 32.5345 12.5001 32.0565 12.5001H31.0139L29.7761 27.2996C29.7421 27.7068 29.5558 28.0863 29.2541 28.3631C28.9525 28.6398 28.5575 28.7935 28.1475 28.7937H4.99396C4.58395 28.7935 4.18898 28.6398 3.88734 28.3631C3.58569 28.0863 3.3994 27.7068 3.36537 27.2996L2.12593 12.5001H1.08502C0.60693 12.5001 0.21936 12.1125 0.21936 11.6344V10.107C0.21936 9.62893 0.60693 9.24136 1.08502 9.24136H5.8148L10.6342 0.925448C10.8734 0.512724 11.4014 0.37128 11.8148 0.609166L13.1463 1.37518C13.5616 1.61411 13.7038 2.14495 13.4636 2.55951L9.59197 9.24136H23.5479L19.6777 2.55946C19.4376 2.1449 19.5798 1.61416 19.9951 1.37525L21.3265 0.609224ZM18.2059 15.7588H14.9356V22.2763H18.2059V15.7588ZM11.6653 15.7588H8.39505V22.2763H11.6653V15.7588ZM24.7464 15.7588H21.4762V22.2763H24.7464V15.7588Z" fill="white"/>
</svg>
