<svg width="41" height="40" viewBox="0 0 41 40" fill="none" xmlns="http://www.w3.org/2000/svg">
<path d="M25.3516 19.2778L11.5775 16.8512V34.7816C11.5777 34.9764 11.6162 35.1692 11.6909 35.3491C11.7656 35.529 11.875 35.6925 12.0128 35.8301C12.1507 35.9677 12.3143 36.0768 12.4943 36.1512C12.6744 36.2256 12.8673 36.2638 13.0621 36.2636H36.8299C37.0249 36.2641 37.2181 36.2262 37.3984 36.1519C37.5787 36.0777 37.7426 35.9686 37.8807 35.831C38.0188 35.6933 38.1284 35.5298 38.2033 35.3497C38.2781 35.1696 38.3168 34.9766 38.3169 34.7816V28.1751L25.3516 19.2778Z" fill="#185C37"/>
<path d="M25.3516 3.90967H13.0621C12.8673 3.90951 12.6744 3.94771 12.4943 4.0221C12.3143 4.09649 12.1507 4.20562 12.0128 4.34324C11.875 4.48086 11.7656 4.64429 11.6909 4.82419C11.6162 5.00409 11.5777 5.19694 11.5775 5.39173V11.9982L25.3516 20.0867L32.645 22.5133L38.3169 20.0867V11.9982L25.3516 3.90967Z" fill="#21A366"/>
<path d="M11.5775 11.998H25.3516V20.0866H11.5775V11.998Z" fill="#107C41"/>
<path opacity="0.1" d="M21.4356 10.3804H11.5775V30.6017H21.4356C21.8284 30.5997 22.2046 30.4431 22.4827 30.1657C22.7608 29.8882 22.9184 29.5124 22.9214 29.1196V11.8624C22.9184 11.4696 22.7608 11.0938 22.4827 10.8164C22.2046 10.539 21.8284 10.3823 21.4356 10.3804V10.3804Z" fill="#212B38"/>
<path opacity="0.2" d="M20.6255 11.1892H11.5775V31.4105H20.6255C21.0183 31.4086 21.3945 31.2519 21.6726 30.9745C21.9507 30.6971 22.1083 30.3213 22.1113 29.9284V12.6713C22.1083 12.2785 21.9507 11.9026 21.6726 11.6252C21.3945 11.3478 21.0183 11.1912 20.6255 11.1892V11.1892Z" fill="#212B38"/>
<path opacity="0.2" d="M20.6255 11.1892H11.5775V29.7928H20.6255C21.0183 29.7909 21.3945 29.6342 21.6726 29.3568C21.9507 29.0794 22.1083 28.7035 22.1113 28.3107V12.6713C22.1083 12.2785 21.9507 11.9026 21.6726 11.6252C21.3945 11.3478 21.0183 11.1912 20.6255 11.1892V11.1892Z" fill="#212B38"/>
<path opacity="0.2" d="M19.8154 11.1892H11.5775V29.7928H19.8154C20.2082 29.7909 20.5844 29.6342 20.8625 29.3568C21.1406 29.0794 21.2982 28.7035 21.3012 28.3107V12.6713C21.2982 12.2785 21.1406 11.9026 20.8625 11.6252C20.5844 11.3478 20.2082 11.1912 19.8154 11.1892V11.1892Z" fill="#212B38"/>
<path d="M4.95986 11.1892H19.8154C20.2089 11.1889 20.5864 11.3448 20.865 11.6227C21.1436 11.9006 21.3005 12.2778 21.3012 12.6713V27.5019C21.3005 27.8954 21.1436 28.2726 20.865 28.5505C20.5864 28.8284 20.2089 28.9843 19.8154 28.984H4.95986C4.76496 28.9843 4.57191 28.9462 4.39174 28.8719C4.21157 28.7976 4.04782 28.6885 3.90983 28.5508C3.77185 28.4132 3.66234 28.2497 3.58757 28.0697C3.51279 27.8897 3.47422 27.6968 3.47406 27.5019V12.6713C3.47422 12.4764 3.51279 12.2834 3.58757 12.1034C3.66234 11.9235 3.77185 11.76 3.90983 11.6223C4.04782 11.4847 4.21157 11.3756 4.39174 11.3013C4.57191 11.227 4.76496 11.1889 4.95986 11.1892V11.1892Z" fill="url(#paint0_linear_611_1143)"/>
<path d="M8.07828 24.9061L11.2029 20.0729L8.34084 15.2671H10.6392L12.2009 18.3445C12.3453 18.6356 12.4498 18.8522 12.4971 18.9965H12.5183C12.6203 18.7626 12.7286 18.5373 12.8418 18.3171L14.5118 15.2721H16.6272L13.6917 20.0505L16.7019 24.9098H14.4508L12.6464 21.5363C12.5626 21.3913 12.4915 21.2393 12.4336 21.0821H12.4038C12.3512 21.2353 12.281 21.3818 12.1947 21.5189L10.3368 24.9061H8.07828Z" fill="white"/>
<path d="M36.8311 3.90967H25.3516V11.9982H38.3169V5.39174C38.3167 5.19684 38.2782 5.00389 38.2034 4.8239C38.1286 4.64392 38.0191 4.48044 37.8811 4.3428C37.7431 4.20516 37.5794 4.09607 37.3992 4.02175C37.219 3.94743 37.026 3.90934 36.8311 3.90967V3.90967Z" fill="#33C481"/>
<path d="M25.3516 20.0867H38.3169V28.1752H25.3516V20.0867Z" fill="#107C41"/>
<defs>
<linearGradient id="paint0_linear_611_1143" x1="6.57756" y1="10.0245" x2="18.1977" y2="30.1487" gradientUnits="userSpaceOnUse">
<stop stop-color="#18884F"/>
<stop offset="0.5" stop-color="#117E43"/>
<stop offset="1" stop-color="#0B6631"/>
</linearGradient>
</defs>
</svg>
