<svg width="33" height="28" viewBox="0 0 33 28" fill="none" xmlns="http://www.w3.org/2000/svg">
<mask id="path-1-inside-1_611_590" fill="white">
<path fill-rule="evenodd" clip-rule="evenodd" d="M3.71378 8.04227V24.3126H18.1632V24.3126H28.6711V8.04066L17.1116 16.719C16.7988 16.9535 16.4186 17.0802 16.0279 17.0802C15.6371 17.0802 15.2569 16.9535 14.9441 16.719L3.71378 8.04227ZM3.71378 0.808683H28.6711C30.6633 0.808683 32.2834 2.43045 32.2834 4.42467V24.3126C32.2834 26.3068 30.6633 27.9286 28.6711 27.9286H14.2217V27.9286H3.71378C1.72157 27.9286 0.101433 26.3068 0.101433 24.3126V13.4646H0.0993385V4.42467C0.0993385 2.44234 1.70022 0.828026 3.67611 0.808856C3.68865 0.808727 3.7012 0.808662 3.71378 0.808662V0.808683ZM4.91459 4.42467L16.0279 13.0126L27.4682 4.42467H4.91459Z"/>
</mask>
<path fill-rule="evenodd" clip-rule="evenodd" d="M3.71378 8.04227V24.3126H18.1632V24.3126H28.6711V8.04066L17.1116 16.719C16.7988 16.9535 16.4186 17.0802 16.0279 17.0802C15.6371 17.0802 15.2569 16.9535 14.9441 16.719L3.71378 8.04227ZM3.71378 0.808683H28.6711C30.6633 0.808683 32.2834 2.43045 32.2834 4.42467V24.3126C32.2834 26.3068 30.6633 27.9286 28.6711 27.9286H14.2217V27.9286H3.71378C1.72157 27.9286 0.101433 26.3068 0.101433 24.3126V13.4646H0.0993385V4.42467C0.0993385 2.44234 1.70022 0.828026 3.67611 0.808856C3.68865 0.808727 3.7012 0.808662 3.71378 0.808662V0.808683ZM4.91459 4.42467L16.0279 13.0126L27.4682 4.42467H4.91459Z" fill="white"/>
<path d="M3.71378 24.3126V24.8126H3.21378V24.3126H3.71378ZM3.71378 8.04227H3.21378V7.02412L4.01947 7.64661L3.71378 8.04227ZM18.1632 24.3126V23.8126H18.6632V24.3126H18.1632ZM18.1632 24.3126V24.8126H17.6632V24.3126H18.1632ZM28.6711 24.3126H29.1711V24.8126H28.6711V24.3126ZM28.6711 8.04066L28.3709 7.6408L29.1711 7.04005V8.04066H28.6711ZM17.1116 16.719L17.4118 17.1189L17.4115 17.1191L17.1116 16.719ZM14.9441 16.719L14.6442 17.1191L14.6385 17.1147L14.9441 16.719ZM3.71378 0.808683V1.30868H3.21378V0.808683H3.71378ZM14.2217 27.9286V28.4286H13.7217V27.9286H14.2217ZM14.2217 27.9286V27.4286H14.7217V27.9286H14.2217ZM0.101433 13.4646V12.9646H0.601433V13.4646H0.101433ZM0.0993385 13.4646V13.9646H-0.400661V13.4646H0.0993385ZM3.67611 0.808856L3.68124 1.30883L3.68096 1.30883L3.67611 0.808856ZM3.71378 0.808662V0.308662H4.21378V0.808662H3.71378ZM16.0279 13.0126L16.328 13.4125L16.0235 13.6411L15.7221 13.4083L16.0279 13.0126ZM4.91459 4.42467L4.60886 4.82031L3.44986 3.92467H4.91459V4.42467ZM27.4682 4.42467V3.92467H28.9671L27.7683 4.82454L27.4682 4.42467ZM3.21378 24.3126V8.04227H4.21378V24.3126H3.21378ZM18.1632 24.8126H3.71378V23.8126H18.1632V24.8126ZM17.6632 24.3126V24.3126H18.6632V24.3126H17.6632ZM28.6711 24.8126H18.1632V23.8126H28.6711V24.8126ZM29.1711 8.04066V24.3126H28.1711V8.04066H29.1711ZM16.8114 16.3192L28.3709 7.6408L28.9713 8.44051L17.4118 17.1189L16.8114 16.3192ZM16.0279 16.5802C16.3104 16.5802 16.5854 16.4886 16.8117 16.3189L17.4115 17.1191C17.0122 17.4184 16.5268 17.5802 16.0279 17.5802V16.5802ZM15.244 16.3189C15.4703 16.4885 15.7453 16.5802 16.0279 16.5802V17.5802C15.529 17.5802 15.0435 17.4184 14.6443 17.1191L15.244 16.3189ZM4.01947 7.64661L15.2498 16.3234L14.6385 17.1147L3.40808 8.43794L4.01947 7.64661ZM28.6711 1.30868H3.71378V0.308683H28.6711V1.30868ZM31.7834 4.42467C31.7834 2.70611 30.3867 1.30868 28.6711 1.30868V0.308683C30.9399 0.308683 32.7834 2.15479 32.7834 4.42467H31.7834ZM31.7834 24.3126V4.42467H32.7834V24.3126H31.7834ZM28.6711 27.4286C30.3867 27.4286 31.7834 26.0312 31.7834 24.3126H32.7834C32.7834 26.5825 30.9399 28.4286 28.6711 28.4286V27.4286ZM14.2217 27.4286H28.6711V28.4286H14.2217V27.4286ZM14.7217 27.9286V27.9286H13.7217V27.9286H14.7217ZM3.71378 27.4286H14.2217V28.4286H3.71378V27.4286ZM0.601433 24.3126C0.601433 26.0311 1.99818 27.4286 3.71378 27.4286V28.4286C1.44495 28.4286 -0.398567 26.5825 -0.398567 24.3126H0.601433ZM0.601433 13.4646V24.3126H-0.398567V13.4646H0.601433ZM0.0993385 12.9646H0.101433V13.9646H0.0993385V12.9646ZM0.599339 4.42467V13.4646H-0.400661V4.42467H0.599339ZM3.68096 1.30883C1.97949 1.32534 0.599339 2.71641 0.599339 4.42467H-0.400661C-0.400661 2.16827 1.42096 0.330712 3.67126 0.308879L3.68096 1.30883ZM3.71378 1.30866C3.70292 1.30866 3.69207 1.30872 3.68124 1.30883L3.67097 0.308882C3.68522 0.308736 3.69949 0.308662 3.71378 0.308662V1.30866ZM3.21378 0.808683V0.808662H4.21378V0.808683H3.21378ZM15.7221 13.4083L4.60886 4.82031L5.22033 4.02904L16.3336 12.617L15.7221 13.4083ZM27.7683 4.82454L16.328 13.4125L15.7277 12.6128L27.168 4.0248L27.7683 4.82454ZM4.91459 3.92467H27.4682V4.92467H4.91459V3.92467Z" fill="#726EFF" mask="url(#path-1-inside-1_611_590)"/>
</svg>
