<svg width="216" height="81" viewBox="0 0 216 81" fill="none" xmlns="http://www.w3.org/2000/svg">
<path d="M40.5674 7.19571C22.23 7.19571 7.34756 22.0782 7.34756 40.4155C7.34756 58.7529 22.23 73.6354 40.5674 73.6354C58.9047 73.6354 73.7872 58.7529 73.7872 40.4155C73.7872 22.0782 58.9047 7.19571 40.5674 7.19571ZM43.8894 18.1583L48.3741 15.0024C54.3833 16.8645 59.5384 20.7956 62.9243 26.0978L61.6288 30.5492L57.1441 32.0774L43.8894 22.809V18.1583ZM32.7607 15.0024L37.2454 18.1583V22.809L23.9907 32.0774L19.506 30.5492L18.2104 26.0978C21.6161 20.8137 26.7638 16.8883 32.7607 15.0024V15.0024ZM24.2232 57.3909L20.4362 57.7231C16.2719 52.9194 13.9832 46.773 13.9915 40.4155C13.9915 40.0169 14.0247 39.6515 14.058 39.2528L17.38 36.8278L21.9643 38.4223L26.8144 52.8397L24.2232 57.3909V57.3909ZM48.8723 65.6294C46.248 66.4931 43.4575 66.9914 40.5674 66.9914C37.6773 66.9914 34.8868 66.4931 32.2624 65.6294L29.9703 60.6796L32.0963 57.0254H49.0717L51.1977 60.7129L48.8723 65.6294V65.6294ZM48.1083 50.3815H33.0265L28.5418 37.0271L40.5674 28.5893L52.6262 37.0271L48.1083 50.3815ZM60.6986 57.7231L56.9115 57.3909L54.2872 52.8397L59.1373 38.4223L63.7548 36.861L67.0768 39.2861C67.11 39.6515 67.1433 40.0169 67.1433 40.4155C67.1433 47.0263 64.7182 53.0723 60.6986 57.7231V57.7231Z" fill="#37465B"/>
<path d="M81.2777 55.4743L89.7432 39.8979L92.0006 38.2612C92.0006 38.2612 92.17 37.8662 92.5086 37.0761C92.8848 36.286 93.3363 35.3265 93.863 34.1978C94.3898 33.0691 94.8977 32.0344 95.3868 31.0938L97.1364 28.0463C97.2492 27.7829 97.3997 27.5948 97.5878 27.4819C97.776 27.369 98.1898 27.3126 98.8294 27.3126C99.5067 27.275 100.635 27.2561 102.216 27.2561L93.9195 42.3247L92.2264 42.889C92.2264 42.889 92.0947 43.19 91.8313 43.792C91.568 44.3564 91.2293 45.1089 90.8155 46.0495C90.4392 46.9524 90.0066 47.9307 89.5174 48.9842C89.0283 50 88.558 50.9406 88.1065 51.806L86.4699 54.5714C86.357 54.8723 86.1689 55.0793 85.9055 55.1922C85.6421 55.305 85.153 55.3803 84.4382 55.4179C83.7609 55.4555 82.7075 55.4743 81.2777 55.4743ZM97.4185 55.4743L95.3304 51.7495C94.8413 50.9218 94.3522 50 93.863 48.9842C93.4116 47.9683 92.9601 47.0089 92.5086 46.1059C92.0947 45.1653 91.7561 44.4128 91.4927 43.8484C91.2293 43.2465 91.0977 42.9455 91.0977 42.9455L90.0818 42.2682L82.4065 27.9898C82.2936 27.7641 82.2748 27.6136 82.35 27.5383C82.4629 27.4255 82.8768 27.3502 83.5916 27.3126C84.3065 27.275 85.5105 27.2561 87.2035 27.2561L89.2917 31.0938C89.7808 32.0344 90.2887 33.0691 90.8155 34.1978C91.3422 35.2889 91.7749 36.2483 92.1135 37.0761C92.4521 37.8662 92.6214 38.2612 92.6214 38.2612L94.3145 39.2207L102.498 54.402C102.686 54.7407 102.724 54.9852 102.611 55.1357C102.535 55.2862 102.122 55.3803 101.369 55.4179C100.617 55.4555 99.2997 55.4743 97.4185 55.4743Z" fill="#726EFF"/>
<path d="M112.439 56.0387C109.843 56.0387 107.943 55.6813 106.739 54.9664C105.573 54.2139 104.99 53.4426 104.99 52.6525C104.99 52.201 105.084 51.6743 105.272 51.0723C105.46 50.4327 105.761 49.8683 106.175 49.3792C106.777 49.9436 107.548 50.4139 108.489 50.7901C109.467 51.1664 110.633 51.3545 111.988 51.3545C113.982 51.3545 115.393 50.8277 116.221 49.7743C117.086 48.7208 117.519 47.3287 117.519 45.598C117.519 44.3187 117.274 43.1336 116.785 42.0425C116.334 40.9514 115.487 39.691 114.245 38.2612L108.602 31.6582C107.323 30.078 106.401 28.6671 105.836 27.4255C105.31 26.1462 105.046 24.8294 105.046 23.4749C105.046 21.1046 105.874 19.1669 107.529 17.662C109.223 16.157 111.631 15.4045 114.753 15.4045C117.425 15.4045 119.325 15.6867 120.453 16.251C121.582 16.7778 122.146 17.4362 122.146 18.2263C122.146 18.6026 122.052 19.0352 121.864 19.5244C121.676 19.9759 121.394 20.4085 121.018 20.8224C120.642 20.559 119.945 20.2768 118.93 19.9759C117.951 19.6372 116.804 19.4679 115.487 19.4679C113.794 19.4679 112.439 19.8065 111.424 20.4838C110.445 21.161 109.956 22.1204 109.956 23.362C109.956 24.3779 110.182 25.3185 110.633 26.1839C111.123 27.0116 111.781 27.9334 112.609 28.9492L118.704 35.8909C120.171 37.6216 121.168 39.2018 121.695 40.6316C122.222 42.0613 122.485 43.6603 122.485 45.4287C122.485 47.3099 122.165 49.0594 121.526 50.6772C120.924 52.2951 119.889 53.5931 118.422 54.5714C116.992 55.5496 114.998 56.0387 112.439 56.0387ZM128.603 66.5923C127.813 66.5923 127.248 66.4418 126.91 66.1408C126.571 65.8774 126.402 65.3695 126.402 64.617V28.9492C127.53 28.2344 128.81 27.6888 130.239 27.3126C131.669 26.8987 133.136 26.6918 134.641 26.6918C136.523 26.6918 138.14 27.0304 139.495 27.7076C140.887 28.3472 141.959 29.5324 142.712 31.2631C143.464 32.9562 143.841 35.3454 143.841 38.4305C143.841 41.4405 143.671 43.9989 143.333 46.1059C142.994 48.1752 142.543 49.8683 141.978 51.1852C141.414 52.502 140.755 53.5179 140.003 54.2327C139.288 54.91 138.536 55.3803 137.745 55.6436C136.993 55.907 136.222 56.0387 135.432 56.0387C134.416 56.0387 133.513 55.8882 132.723 55.5872C131.97 55.2862 131.387 54.91 130.973 54.4585V66.1972C130.597 66.3101 130.202 66.4042 129.788 66.4794C129.374 66.5547 128.979 66.5923 128.603 66.5923ZM134.021 51.9188C134.472 51.9188 134.961 51.7872 135.488 51.5238C136.015 51.2604 136.523 50.6961 137.012 49.8307C137.538 48.9653 137.952 47.6673 138.253 45.9366C138.592 44.2059 138.761 41.8732 138.761 38.9385C138.761 36.681 138.592 34.9691 138.253 33.8028C137.952 32.5988 137.482 31.7899 136.842 31.376C136.203 30.9245 135.394 30.6988 134.416 30.6988C133.136 30.6988 131.989 31.0562 130.973 31.7711V50.0564C131.387 50.7337 131.857 51.2228 132.384 51.5238C132.911 51.7872 133.456 51.9188 134.021 51.9188ZM155.905 56.0387C154.475 56.0387 153.196 55.8506 152.067 55.4743C150.976 55.1357 150.054 54.4585 149.302 53.4426C148.549 52.4268 147.985 50.9594 147.609 49.0406C147.232 47.0841 147.044 44.5257 147.044 41.3652C147.044 36.2107 147.872 32.4859 149.527 30.1908C151.183 27.8581 153.478 26.6918 156.413 26.6918C158.407 26.6918 160.043 27.1056 161.323 27.9334C162.639 28.7611 163.618 30.2285 164.257 32.3354C164.897 34.4424 165.217 37.3959 165.217 41.1959C165.217 46.4633 164.427 50.2634 162.846 52.5961C161.266 54.8912 158.952 56.0387 155.905 56.0387ZM156.018 52.1446C156.845 52.1446 157.56 51.8624 158.162 51.298C158.802 50.6961 159.31 49.605 159.686 48.0247C160.062 46.4445 160.25 44.1871 160.25 41.2524C160.25 38.2424 160.1 35.985 159.799 34.48C159.498 32.9374 159.065 31.9027 158.501 31.376C157.936 30.8493 157.184 30.5859 156.243 30.5859C155.416 30.5859 154.682 30.8869 154.042 31.4889C153.403 32.0532 152.895 33.1255 152.519 34.7057C152.18 36.286 152.011 38.5434 152.011 41.4781C152.011 43.7732 152.105 45.6356 152.293 47.0653C152.481 48.495 152.725 49.5861 153.026 50.3386C153.365 51.0535 153.798 51.5426 154.324 51.806C154.851 52.0317 155.416 52.1446 156.018 52.1446ZM169.279 55.4743V29.2314C170.37 28.4413 171.574 27.8205 172.891 27.369C174.208 26.9175 175.562 26.6918 176.954 26.6918C178.421 26.6918 179.437 26.8987 180.002 27.3126C180.604 27.6888 180.905 28.272 180.905 29.0621C180.905 29.3631 180.867 29.777 180.792 30.3037C180.717 30.7928 180.585 31.2819 180.397 31.7711C179.983 31.5453 179.55 31.376 179.099 31.2631C178.647 31.1503 178.177 31.0938 177.688 31.0938C177.048 31.0938 176.39 31.2067 175.713 31.4324C175.073 31.6206 174.49 31.9216 173.963 32.3354L173.907 54.5714C173.907 54.8723 173.831 55.0793 173.681 55.1922C173.568 55.305 173.192 55.3803 172.552 55.4179C171.912 55.4555 170.821 55.4743 169.279 55.4743ZM191.836 56.0387C190.256 56.0387 189.071 55.7001 188.281 55.0228C187.528 54.308 187.039 53.3298 186.813 52.0882C186.588 50.8089 186.475 49.3228 186.475 47.6297V31.2067H182.637C182.637 30.0027 182.637 29.1374 182.637 28.6106C182.675 28.0463 182.769 27.6888 182.919 27.5383C183.07 27.3502 183.295 27.2561 183.596 27.2561H186.475V18.6778C186.475 18.1134 186.588 17.7372 186.813 17.5491C187.077 17.3233 187.528 17.1917 188.168 17.154C188.845 17.1164 189.804 17.0976 191.046 17.0976V27.2561H196.803C196.803 28.4225 196.784 29.2879 196.746 29.8522C196.746 30.4166 196.671 30.7928 196.52 30.9809C196.408 31.1314 196.201 31.2067 195.9 31.2067H191.046V47.6297C191.046 48.4198 191.065 49.1723 191.102 49.8871C191.178 50.5644 191.347 51.1099 191.61 51.5238C191.911 51.9 192.401 52.0882 193.078 52.0882C193.717 52.0882 194.282 52.0317 194.771 51.9188C195.26 51.7683 195.787 51.5426 196.351 51.2416C196.426 51.5426 196.502 51.8812 196.577 52.2575C196.652 52.6337 196.69 53.0664 196.69 53.5555C196.69 54.2327 196.426 54.7595 195.9 55.1357C195.41 55.4743 194.79 55.7001 194.037 55.813C193.322 55.9635 192.589 56.0387 191.836 56.0387Z" fill="#37465B"/>
</svg>
