<svg width="21" height="20" viewBox="0 0 21 20" fill="none" xmlns="http://www.w3.org/2000/svg">
<path d="M20.1887 18.8405C19.9401 19.0746 19.6425 19.1917 19.2959 19.1917C18.9493 19.1917 18.6517 19.0746 18.4032 18.8405L14.5182 15.1805C12.9485 16.2773 11.1957 16.8257 9.25982 16.8257C8.06949 16.8257 6.93148 16.6069 5.84579 16.1695C4.7601 15.732 3.82484 15.1436 3.04 14.4042C2.25517 13.6648 1.63057 12.7867 1.16621 11.7701C0.701846 10.7534 0.469666 9.6813 0.469666 8.55373C0.469666 7.42616 0.701846 6.35096 1.16621 5.32814C1.63057 4.30532 2.25517 3.42729 3.04 2.69406C3.82484 1.96083 4.7601 1.37548 5.84579 0.938008C6.93148 0.500536 8.06949 0.281799 9.25982 0.281799C10.4502 0.281799 11.5882 0.500536 12.6739 0.938008C13.7595 1.37548 14.6948 1.96083 15.4796 2.69406C16.2645 3.42729 16.8891 4.30532 17.3534 5.32814C17.8178 6.35096 18.05 7.42308 18.05 8.54449C18.05 10.3806 17.4679 12.0319 16.3037 13.4984L20.1887 17.1584C20.4372 17.3925 20.5614 17.6729 20.5614 17.9994C20.5614 18.326 20.4372 18.6064 20.1887 18.8405ZM9.25982 2.64785C8.12181 2.64785 7.07209 2.90972 6.11067 3.43345C5.14925 3.95719 4.3873 4.67501 3.82484 5.58693C3.26237 6.49884 2.98114 7.48778 2.98114 8.55373C2.98114 9.61969 3.26237 10.6086 3.82484 11.5205C4.3873 12.4325 5.14925 13.1503 6.11067 13.674C7.07209 14.1977 8.12181 14.4596 9.25982 14.4596C10.3978 14.4596 11.4475 14.1977 12.409 13.674C13.3704 13.1503 14.1323 12.4325 14.6948 11.5205C15.2573 10.6086 15.5385 9.61969 15.5385 8.55373C15.5385 7.48778 15.2573 6.49884 14.6948 5.58693C14.1323 4.67501 13.3704 3.95719 12.409 3.43345C11.4475 2.90972 10.3978 2.64785 9.25982 2.64785Z" fill="#726EFF"/>
</svg>
